HIERARCHY
ROOT joint_Root
{
	OFFSET 0.0 0.0 0.0
	CHANNELS 6 Xposition Yposition Zposition Zrotation Xrotation Yrotation 
	JOINT Hips
	{
		OFFSET -17.1583 93.1646 452.98
		CHANNELS 6 Xposition Yposition Zposition Zrotation Xrotation Yrotation 
		JOINT Spine
		{
			OFFSET 15.7357 0.0 0.0
			CHANNELS 6 Xposition Yposition Zposition Zrotation Xrotation Yrotation 
			JOINT Chest
			{
				OFFSET 8.98455 -0.406207 0.0
				CHANNELS 6 Xposition Yposition Zposition Zrotation Xrotation Yrotation 
				JOINT Neck
				{
					OFFSET 16.3773 0.0 0.0
					CHANNELS 6 Xposition Yposition Zposition Zrotation Xrotation Yrotation 
					JOINT Head
					{
						OFFSET 6.45672 0.0 0.0
						CHANNELS 6 Xposition Yposition Zposition Zrotation Xrotation Yrotation 
						End Site
						{
							OFFSET 0.0 0.0 0.0
						}
					}
				}
				JOINT Shoulder_L
				{
					OFFSET 12.9942 -0.242716 4.98039
					CHANNELS 6 Xposition Yposition Zposition Zrotation Xrotation Yrotation 
					JOINT UpperArm_L
					{
						OFFSET 5.34809 0.0 0.0
						CHANNELS 6 Xposition Yposition Zposition Zrotation Xrotation Yrotation 
						JOINT LowerArm_L
						{
							OFFSET 24.3286 1.87007e-05 0.0
							CHANNELS 6 Xposition Yposition Zposition Zrotation Xrotation Yrotation 
							JOINT Hand_L
							{
								OFFSET 22.2916 0.0 0.0
								CHANNELS 6 Xposition Yposition Zposition Zrotation Xrotation Yrotation 
								End Site
								{
									OFFSET 0.0 0.0 0.0
								}
							}
						}
					}
				}
				JOINT Shoulder_R
				{
					OFFSET 12.9945 -0.242716 -4.98039
					CHANNELS 6 Xposition Yposition Zposition Zrotation Xrotation Yrotation 
					JOINT UpperArm_R
					{
						OFFSET -5.34813 0.0 0.0
						CHANNELS 6 Xposition Yposition Zposition Zrotation Xrotation Yrotation 
						JOINT LowerArm_R
						{
							OFFSET -24.3289 0.000322201 0.0
							CHANNELS 6 Xposition Yposition Zposition Zrotation Xrotation Yrotation 
							JOINT Hand_R
							{
								OFFSET -22.2915 -0.000108084 0.0
								CHANNELS 6 Xposition Yposition Zposition Zrotation Xrotation Yrotation 
								End Site
								{
									OFFSET 0.0 0.0 0.0
								}
							}
						}
					}
				}
			}
		}
		JOINT UpperLeg_L
		{
			OFFSET -2.19248 -6.46944 0.0
			CHANNELS 6 Xposition Yposition Zposition Zrotation Xrotation Yrotation 
			JOINT LowerLeg_L
			{
				OFFSET 39.0811 0.0 -1.23785e-05
				CHANNELS 6 Xposition Yposition Zposition Zrotation Xrotation Yrotation 
				JOINT Foot_L
				{
					OFFSET 40.9854 0.0 -1.26872e-05
					CHANNELS 6 Xposition Yposition Zposition Zrotation Xrotation Yrotation 
					JOINT Toes_L
					{
						OFFSET 11.7543 0.0 0.0
						CHANNELS 6 Xposition Yposition Zposition Zrotation Xrotation Yrotation 
						End Site
						{
							OFFSET 0.0 0.0 0.0
						}
					}
				}
			}
		}
		JOINT UpperLeg_R
		{
			OFFSET -2.19251 6.46944 0.0
			CHANNELS 6 Xposition Yposition Zposition Zrotation Xrotation Yrotation 
			JOINT LowerLeg_R
			{
				OFFSET -39.0811 -0.00228153 -0.0401928
				CHANNELS 6 Xposition Yposition Zposition Zrotation Xrotation Yrotation 
				JOINT Foot_R
				{
					OFFSET -40.9854 0.0 0.0
					CHANNELS 6 Xposition Yposition Zposition Zrotation Xrotation Yrotation 
					JOINT Toes_R
					{
						OFFSET -11.7543 0.0 0.0
						CHANNELS 6 Xposition Yposition Zposition Zrotation Xrotation Yrotation 
						End Site
						{
							OFFSET 0.0 0.0 0.0
						}
					}
				}
			}
		}
	}
}
MOTION
Frames:	4
Frame Time:	0.0333333
0.000000 0.000000 0.000000 0.000000 0.000000 -0.000000 -2.511810 93.062600 0.693665 86.211300 -0.378148 1.801600 15.735700 0.000005 -0.000001 80.783000 87.701900 -85.876000 8.984550 -0.406207 -0.000000 -3.219740 -0.248377 -10.194900 16.377300 -0.000001 -0.000001 4.593580 1.343100 -9.352140 6.456720 -0.000001 -0.000000 -11.515800 7.616620 -16.685900 12.994200 -0.242716 4.980390 -93.430100 9.440590 -69.926700 5.348090 -0.000007 -0.000001 -57.043200 -4.843760 0.795545 24.328600 0.000019 0.000005 13.291200 27.677900 -26.956000 22.291600 -0.000001 0.000005 2.583090 4.934180 8.688870 12.994500 -0.242716 -4.980390 93.755000 -6.713550 -60.690100 -5.348130 -0.000001 -0.000004 -63.267400 -62.851500 -106.683000 -24.328900 0.000322 -0.000009 -0.572186 -18.475300 -1.801790 -22.291500 -0.000108 -0.000004 31.257700 5.434120 -4.081470 -2.192480 -6.469440 -0.000000 -169.316000 -10.622300 0.709004 39.081100 -0.000007 -0.000012 -0.021931 0.078631 15.584400 40.985400 -0.000006 -0.000013 -1.272570 18.834100 -69.378500 11.754300 -0.000000 0.000003 -0.002481 0.202209 -8.372390 -2.192510 6.469440 -0.000001 178.711000 7.579630 -176.773000 -39.081100 -0.002282 -0.040193 -0.009377 0.074544 9.680810 -40.985400 0.000008 0.000006 -7.780290 13.694700 -64.600600 -11.754300 -0.000006 -0.000006 -0.008591 0.260457 -5.994470
0.000000 0.000000 0.000000 0.000000 0.000000 -0.000000 -2.517320 93.072600 0.596911 86.231800 -0.434363 1.782030 15.735700 0.000005 -0.000001 80.824100 87.668400 -85.883300 8.984550 -0.406207 -0.000000 -3.153890 -0.261935 -10.127400 16.377300 -0.000001 -0.000001 4.635780 1.348180 -9.315250 6.456720 -0.000001 -0.000000 -11.520100 7.633210 -16.619700 12.994200 -0.242716 4.980390 -93.407800 9.370230 -69.910400 5.348090 -0.000007 -0.000001 -56.903100 -5.100270 0.765294 24.328600 0.000019 0.000005 13.423500 27.873100 -27.044400 22.291600 -0.000001 0.000005 2.597530 4.930130 8.771340 12.994500 -0.242716 -4.980390 93.762400 -6.727830 -60.693400 -5.348130 -0.000001 -0.000004 -63.090600 -62.742400 -106.557000 -24.328900 0.000322 -0.000009 -0.504374 -18.699600 -1.569600 -22.291500 -0.000108 -0.000004 30.930000 5.429510 -3.922780 -2.192480 -6.469440 -0.000000 -169.354000 -10.551000 0.662872 39.081100 -0.000007 -0.000012 -0.021207 0.076268 15.539000 40.985400 -0.000006 -0.000013 -1.305550 18.757400 -69.322000 11.754300 -0.000000 0.000003 -0.002546 0.202988 -8.340690 -2.192510 6.469440 -0.000001 178.739000 7.433380 -176.898000 -39.081100 -0.002282 -0.040193 -0.008786 0.070550 9.751910 -40.985400 0.000008 0.000006 -7.600200 13.575500 -64.706900 -11.754300 -0.000006 -0.000006 -0.009038 0.263969 -5.850940
0.000000 0.000000 0.000000 0.000000 0.000000 -0.000000 -2.529470 93.089700 0.517479 86.251400 -0.475181 1.738130 15.735700 0.000005 -0.000001 80.977000 87.628300 -85.995900 8.984550 -0.406207 -0.000000 -3.073410 -0.269583 -10.046400 16.377300 -0.000001 -0.000001 4.610220 1.335540 -9.270220 6.456720 -0.000001 -0.000000 -11.589500 7.596240 -16.571300 12.994200 -0.242716 4.980390 -93.395700 9.334000 -69.905300 5.348090 -0.000007 -0.000001 -56.816300 -5.269150 0.779033 24.328600 0.000019 0.000005 13.424500 27.837600 -27.073400 22.291600 -0.000001 0.000005 2.630270 4.934750 8.677170 12.994500 -0.242716 -4.980390 93.744500 -6.697520 -60.700600 -5.348130 -0.000001 -0.000004 -63.390100 -62.628800 -106.880000 -24.328900 0.000322 -0.000009 -0.469893 -18.811800 -1.453720 -22.291500 -0.000108 -0.000004 31.030000 5.427650 -3.858790 -2.192480 -6.469440 -0.000000 -169.373000 -10.666900 0.625562 39.081100 -0.000007 -0.000012 -0.021283 0.077161 15.420000 40.985400 -0.000006 -0.000013 -1.339970 18.791300 -69.171500 11.754300 -0.000000 0.000003 -0.002439 0.201718 -8.392360 -2.192510 6.469440 -0.000001 178.748000 7.309700 -176.970000 -39.081100 -0.002282 -0.040193 -0.008523 0.069595 9.673360 -40.985400 0.000008 0.000006 -7.695110 13.514500 -64.560900 -11.754300 -0.000006 -0.000006 -0.008569 0.260286 -6.001450
0.000000 0.000000 0.000000 0.000000 0.000000 -0.000000 -2.540740 93.108600 0.430317 86.298000 -0.444687 1.658930 15.735700 0.000005 -0.000001 80.743500 87.609400 -85.732400 8.984550 -0.406207 -0.000000 -3.040430 -0.299020 -9.987030 16.377300 -0.000001 -0.000001 4.630900 1.283460 -9.191760 6.456720 -0.000001 -0.000000 -11.615800 7.555310 -16.512200 12.994200 -0.242716 4.980390 -93.386000 9.297700 -69.886900 5.348090 -0.000007 -0.000001 -56.777400 -5.170410 0.867741 24.328600 0.000019 0.000005 13.497900 27.857700 -27.189400 22.291600 -0.000001 0.000005 2.595550 4.930410 8.765820 12.994500 -0.242716 -4.980390 93.729600 -6.672310 -60.706000 -5.348130 -0.000001 -0.000004 -63.278900 -62.577300 -106.813000 -24.328900 0.000322 -0.000009 -0.438915 -18.958500 -1.347580 -22.291500 -0.000108 -0.000004 31.195200 5.430450 -3.954650 -2.192480 -6.469440 -0.000000 -169.437000 -10.640300 0.554037 39.081100 -0.000007 -0.000012 -0.021328 0.078106 15.273100 40.985400 -0.000006 -0.000013 -1.385140 18.793400 -69.087400 11.754300 -0.000000 0.000003 -0.002588 0.203477 -8.320800 -2.192510 6.469440 -0.000001 178.731000 7.329310 -177.088000 -39.081100 -0.002282 -0.040193 -0.008127 0.067536 9.635850 -40.985400 0.000008 0.000006 -7.708980 13.499600 -64.516100 -11.754300 -0.000006 -0.000006 -0.008553 0.260154 -6.006820
